<svg width="331" height="388" viewBox="0 0 331 388" fill="none" xmlns="http://www.w3.org/2000/svg">
<g clip-path="url(#clip0_7092_658)">
<path d="M5.92928 0.000976562H0.0078125V6.31132H5.92928V0.000976562Z" fill="#032344"/>
<path d="M5.92928 38.1377H0.0078125V44.448H5.92928V38.1377Z" fill="#032344"/>
<path d="M5.92928 76.3047H0.0078125V82.615H5.92928V76.3047Z" fill="#032344"/>
<path d="M5.92928 114.44H0.0078125V120.751H5.92928V114.44Z" fill="#032344"/>
<path d="M5.92928 152.577H0.0078125V158.887H5.92928V152.577Z" fill="#032344"/>
<path d="M5.92928 190.714H0.0078125V197.024H5.92928V190.714Z" fill="#032344"/>
<path d="M5.92928 228.881H0.0078125V235.191H5.92928V228.881Z" fill="#032344"/>
<path d="M5.92928 267.017H0.0078125V273.327H5.92928V267.017Z" fill="#032344"/>
<path d="M5.92928 305.153H0.0078125V311.464H5.92928V305.153Z" fill="#032344"/>
<path d="M5.92928 343.32H0.0078125V349.631H5.92928V343.32Z" fill="#032344"/>
<path d="M5.92928 381.457H0.0078125V387.767H5.92928V381.457Z" fill="#032344"/>
<path d="M38.3433 0.000976562H32.4219V6.31132H38.3433V0.000976562Z" fill="#032344"/>
<path d="M38.3433 38.1377H32.4219V44.448H38.3433V38.1377Z" fill="#032344"/>
<path d="M38.3433 76.3047H32.4219V82.615H38.3433V76.3047Z" fill="#032344"/>
<path d="M38.3433 114.44H32.4219V120.751H38.3433V114.44Z" fill="#032344"/>
<path d="M38.3433 152.577H32.4219V158.887H38.3433V152.577Z" fill="#032344"/>
<path d="M38.3433 190.714H32.4219V197.024H38.3433V190.714Z" fill="#032344"/>
<path d="M38.3433 228.881H32.4219V235.191H38.3433V228.881Z" fill="#032344"/>
<path d="M38.3433 267.017H32.4219V273.327H38.3433V267.017Z" fill="#032344"/>
<path d="M38.3433 305.153H32.4219V311.464H38.3433V305.153Z" fill="#032344"/>
<path d="M38.3433 343.32H32.4219V349.631H38.3433V343.32Z" fill="#032344"/>
<path d="M38.3433 381.457H32.4219V387.767H38.3433V381.457Z" fill="#032344"/>
<path d="M70.7496 0.000976562H64.8281V6.31132H70.7496V0.000976562Z" fill="#032344"/>
<path d="M70.7496 38.1377H64.8281V44.448H70.7496V38.1377Z" fill="#032344"/>
<path d="M70.7496 76.3047H64.8281V82.615H70.7496V76.3047Z" fill="#032344"/>
<path d="M70.7496 114.44H64.8281V120.751H70.7496V114.44Z" fill="#032344"/>
<path d="M70.7496 152.577H64.8281V158.887H70.7496V152.577Z" fill="#032344"/>
<path d="M70.7496 190.714H64.8281V197.024H70.7496V190.714Z" fill="#032344"/>
<path d="M70.7496 228.881H64.8281V235.191H70.7496V228.881Z" fill="#032344"/>
<path d="M70.7496 267.017H64.8281V273.327H70.7496V267.017Z" fill="#032344"/>
<path d="M70.7496 305.153H64.8281V311.464H70.7496V305.153Z" fill="#032344"/>
<path d="M70.7496 343.32H64.8281V349.631H70.7496V343.32Z" fill="#032344"/>
<path d="M70.7496 381.457H64.8281V387.767H70.7496V381.457Z" fill="#032344"/>
<path d="M103.164 0.000976562H97.2422V6.31132H103.164V0.000976562Z" fill="#032344"/>
<path d="M103.164 38.1377H97.2422V44.448H103.164V38.1377Z" fill="#032344"/>
<path d="M103.164 76.3047H97.2422V82.615H103.164V76.3047Z" fill="#032344"/>
<path d="M103.164 114.44H97.2422V120.751H103.164V114.44Z" fill="#032344"/>
<path d="M103.164 152.577H97.2422V158.887H103.164V152.577Z" fill="#032344"/>
<path d="M103.164 190.714H97.2422V197.024H103.164V190.714Z" fill="#032344"/>
<path d="M103.164 228.881H97.2422V235.191H103.164V228.881Z" fill="#032344"/>
<path d="M103.164 267.017H97.2422V273.327H103.164V267.017Z" fill="#032344"/>
<path d="M103.164 305.153H97.2422V311.464H103.164V305.153Z" fill="#032344"/>
<path d="M103.164 343.32H97.2422V349.631H103.164V343.32Z" fill="#032344"/>
<path d="M103.164 381.457H97.2422V387.767H103.164V381.457Z" fill="#032344"/>
<path d="M135.57 0.000976562H129.648V6.31132H135.57V0.000976562Z" fill="#032344"/>
<path d="M135.57 38.1377H129.648V44.448H135.57V38.1377Z" fill="#032344"/>
<path d="M135.57 76.3047H129.648V82.615H135.57V76.3047Z" fill="#032344"/>
<path d="M135.57 114.44H129.648V120.751H135.57V114.44Z" fill="#032344"/>
<path d="M135.57 152.577H129.648V158.887H135.57V152.577Z" fill="#032344"/>
<path d="M135.57 190.714H129.648V197.024H135.57V190.714Z" fill="#032344"/>
<path d="M135.57 228.881H129.648V235.191H135.57V228.881Z" fill="#032344"/>
<path d="M135.57 267.017H129.648V273.327H135.57V267.017Z" fill="#032344"/>
<path d="M135.57 305.153H129.648V311.464H135.57V305.153Z" fill="#032344"/>
<path d="M135.57 343.32H129.648V349.631H135.57V343.32Z" fill="#032344"/>
<path d="M135.57 381.457H129.648V387.767H135.57V381.457Z" fill="#032344"/>
<path d="M167.984 0.000976562H162.062V6.31132H167.984V0.000976562Z" fill="#032344"/>
<path d="M167.984 38.1377H162.062V44.448H167.984V38.1377Z" fill="#032344"/>
<path d="M167.984 76.3047H162.062V82.615H167.984V76.3047Z" fill="#032344"/>
<path d="M167.984 114.44H162.062V120.751H167.984V114.44Z" fill="#032344"/>
<path d="M167.984 152.577H162.062V158.887H167.984V152.577Z" fill="#032344"/>
<path d="M167.984 190.714H162.062V197.024H167.984V190.714Z" fill="#032344"/>
<path d="M167.984 228.881H162.062V235.191H167.984V228.881Z" fill="#032344"/>
<path d="M167.984 267.017H162.062V273.327H167.984V267.017Z" fill="#032344"/>
<path d="M167.984 305.153H162.062V311.464H167.984V305.153Z" fill="#032344"/>
<path d="M167.984 343.32H162.062V349.631H167.984V343.32Z" fill="#032344"/>
<path d="M167.984 381.457H162.062V387.767H167.984V381.457Z" fill="#032344"/>
<path d="M200.39 0.000976562H194.469V6.31132H200.39V0.000976562Z" fill="#032344"/>
<path d="M200.39 38.1377H194.469V44.448H200.39V38.1377Z" fill="#032344"/>
<path d="M200.39 76.3047H194.469V82.615H200.39V76.3047Z" fill="#032344"/>
<path d="M200.39 114.44H194.469V120.751H200.39V114.44Z" fill="#032344"/>
<path d="M200.39 152.577H194.469V158.887H200.39V152.577Z" fill="#032344"/>
<path d="M200.39 190.714H194.469V197.024H200.39V190.714Z" fill="#032344"/>
<path d="M200.39 228.881H194.469V235.191H200.39V228.881Z" fill="#032344"/>
<path d="M200.39 267.017H194.469V273.327H200.39V267.017Z" fill="#032344"/>
<path d="M200.39 305.153H194.469V311.464H200.39V305.153Z" fill="#032344"/>
<path d="M200.39 343.32H194.469V349.631H200.39V343.32Z" fill="#032344"/>
<path d="M200.39 381.457H194.469V387.767H200.39V381.457Z" fill="#032344"/>
<path d="M232.773 0.000976562H226.852V6.31132H232.773V0.000976562Z" fill="#032344"/>
<path d="M232.773 38.1377H226.852V44.448H232.773V38.1377Z" fill="#032344"/>
<path d="M232.773 76.3047H226.852V82.615H232.773V76.3047Z" fill="#032344"/>
<path d="M232.773 114.44H226.852V120.751H232.773V114.44Z" fill="#032344"/>
<path d="M232.773 152.577H226.852V158.887H232.773V152.577Z" fill="#032344"/>
<path d="M232.773 190.714H226.852V197.024H232.773V190.714Z" fill="#032344"/>
<path d="M232.773 228.881H226.852V235.191H232.773V228.881Z" fill="#032344"/>
<path d="M232.773 267.017H226.852V273.327H232.773V267.017Z" fill="#032344"/>
<path d="M232.773 305.153H226.852V311.464H232.773V305.153Z" fill="#032344"/>
<path d="M232.773 343.32H226.852V349.631H232.773V343.32Z" fill="#032344"/>
<path d="M232.773 381.457H226.852V387.767H232.773V381.457Z" fill="#032344"/>
<path d="M265.187 0.000976562H259.266V6.31132H265.187V0.000976562Z" fill="#032344"/>
<path d="M265.187 38.1377H259.266V44.448H265.187V38.1377Z" fill="#032344"/>
<path d="M265.187 76.3047H259.266V82.615H265.187V76.3047Z" fill="#032344"/>
<path d="M265.187 114.44H259.266V120.751H265.187V114.44Z" fill="#032344"/>
<path d="M265.187 152.577H259.266V158.887H265.187V152.577Z" fill="#032344"/>
<path d="M265.187 190.714H259.266V197.024H265.187V190.714Z" fill="#032344"/>
<path d="M265.187 228.881H259.266V235.191H265.187V228.881Z" fill="#032344"/>
<path d="M265.187 267.017H259.266V273.327H265.187V267.017Z" fill="#032344"/>
<path d="M265.187 305.153H259.266V311.464H265.187V305.153Z" fill="#032344"/>
<path d="M265.187 343.32H259.266V349.631H265.187V343.32Z" fill="#032344"/>
<path d="M265.187 381.457H259.266V387.767H265.187V381.457Z" fill="#032344"/>
<path d="M297.593 0.000976562H291.672V6.31132H297.593V0.000976562Z" fill="#032344"/>
<path d="M297.593 38.1377H291.672V44.448H297.593V38.1377Z" fill="#032344"/>
<path d="M297.593 76.3047H291.672V82.615H297.593V76.3047Z" fill="#032344"/>
<path d="M297.593 114.44H291.672V120.751H297.593V114.44Z" fill="#032344"/>
<path d="M297.593 152.577H291.672V158.887H297.593V152.577Z" fill="#032344"/>
<path d="M297.593 190.714H291.672V197.024H297.593V190.714Z" fill="#032344"/>
<path d="M297.593 228.881H291.672V235.191H297.593V228.881Z" fill="#032344"/>
<path d="M297.593 267.017H291.672V273.327H297.593V267.017Z" fill="#032344"/>
<path d="M297.593 305.153H291.672V311.464H297.593V305.153Z" fill="#032344"/>
<path d="M297.593 343.32H291.672V349.631H297.593V343.32Z" fill="#032344"/>
<path d="M297.593 381.457H291.672V387.767H297.593V381.457Z" fill="#032344"/>
<path d="M330.007 0.000976562H324.086V6.31132H330.007V0.000976562Z" fill="#032344"/>
<path d="M330.007 38.1377H324.086V44.448H330.007V38.1377Z" fill="#032344"/>
<path d="M330.007 76.3047H324.086V82.615H330.007V76.3047Z" fill="#032344"/>
<path d="M330.007 114.44H324.086V120.751H330.007V114.44Z" fill="#032344"/>
<path d="M330.007 152.577H324.086V158.887H330.007V152.577Z" fill="#032344"/>
<path d="M330.007 190.714H324.086V197.024H330.007V190.714Z" fill="#032344"/>
<path d="M330.007 228.881H324.086V235.191H330.007V228.881Z" fill="#032344"/>
<path d="M330.007 267.017H324.086V273.327H330.007V267.017Z" fill="#032344"/>
<path d="M330.007 305.153H324.086V311.464H330.007V305.153Z" fill="#032344"/>
<path d="M330.007 343.32H324.086V349.631H330.007V343.32Z" fill="#032344"/>
<path d="M330.007 381.457H324.086V387.767H330.007V381.457Z" fill="#032344"/>
</g>
<defs>
<clipPath id="clip0_7092_658">
<rect width="330" height="387.766" fill="white" transform="translate(0.0078125 0.000976562)"/>
</clipPath>
</defs>
</svg>
