<svg width="330" height="253" viewBox="0 0 330 253" fill="none" xmlns="http://www.w3.org/2000/svg">
<mask id="mask0_7291_5221" style="mask-type:alpha" maskUnits="userSpaceOnUse" x="0" y="0" width="330" height="245">
<rect width="330" height="245" fill="#D9D9D9"/>
</mask>
<g mask="url(#mask0_7291_5221)">
<path d="M5.92146 0H0V5.92359H5.92146V0Z" fill="#E6EEFB"/>
<path d="M5.92146 35.7988H0V41.7224H5.92146V35.7988Z" fill="#E6EEFB"/>
<path d="M5.92146 71.627H0V77.5505H5.92146V71.627Z" fill="#E6EEFB"/>
<path d="M5.92146 107.426H0V113.349H5.92146V107.426Z" fill="#E6EEFB"/>
<path d="M5.92146 143.225H0V149.148H5.92146V143.225Z" fill="#E6EEFB"/>
<path d="M5.92146 179.023H0V184.947H5.92146V179.023Z" fill="#E6EEFB"/>
<path d="M5.92146 214.852H0V220.775H5.92146V214.852Z" fill="#E6EEFB"/>
<path d="M38.3355 0H32.4141V5.92359H38.3355V0Z" fill="#E6EEFB"/>
<path d="M38.3355 35.7988H32.4141V41.7224H38.3355V35.7988Z" fill="#E6EEFB"/>
<path d="M38.3355 71.627H32.4141V77.5505H38.3355V71.627Z" fill="#E6EEFB"/>
<path d="M38.3355 107.426H32.4141V113.349H38.3355V107.426Z" fill="#E6EEFB"/>
<path d="M38.3355 143.225H32.4141V149.148H38.3355V143.225Z" fill="#E6EEFB"/>
<path d="M38.3355 179.023H32.4141V184.947H38.3355V179.023Z" fill="#E6EEFB"/>
<path d="M38.3355 214.852H32.4141V220.775H38.3355V214.852Z" fill="#E6EEFB"/>
<path d="M70.7418 0H64.8203V5.92359H70.7418V0Z" fill="#E6EEFB"/>
<path d="M70.7418 35.7988H64.8203V41.7224H70.7418V35.7988Z" fill="#E6EEFB"/>
<path d="M70.7418 71.627H64.8203V77.5505H70.7418V71.627Z" fill="#E6EEFB"/>
<path d="M70.7418 107.426H64.8203V113.349H70.7418V107.426Z" fill="#E6EEFB"/>
<path d="M70.7418 143.225H64.8203V149.148H70.7418V143.225Z" fill="#E6EEFB"/>
<path d="M70.7418 179.023H64.8203V184.947H70.7418V179.023Z" fill="#E6EEFB"/>
<path d="M70.7418 214.852H64.8203V220.775H70.7418V214.852Z" fill="#E6EEFB"/>
<path d="M103.156 0H97.2344V5.92359H103.156V0Z" fill="#E6EEFB"/>
<path d="M103.156 35.7988H97.2344V41.7224H103.156V35.7988Z" fill="#E6EEFB"/>
<path d="M103.156 71.627H97.2344V77.5505H103.156V71.627Z" fill="#E6EEFB"/>
<path d="M103.156 107.426H97.2344V113.349H103.156V107.426Z" fill="#E6EEFB"/>
<path d="M103.156 143.225H97.2344V149.148H103.156V143.225Z" fill="#E6EEFB"/>
<path d="M103.156 179.023H97.2344V184.947H103.156V179.023Z" fill="#E6EEFB"/>
<path d="M103.156 214.852H97.2344V220.775H103.156V214.852Z" fill="#E6EEFB"/>
<path d="M135.562 0H129.641V5.92359H135.562V0Z" fill="#E6EEFB"/>
<path d="M135.562 35.7988H129.641V41.7224H135.562V35.7988Z" fill="#E6EEFB"/>
<path d="M135.562 71.627H129.641V77.5505H135.562V71.627Z" fill="#E6EEFB"/>
<path d="M135.562 107.426H129.641V113.349H135.562V107.426Z" fill="#E6EEFB"/>
<path d="M135.562 143.225H129.641V149.148H135.562V143.225Z" fill="#E6EEFB"/>
<path d="M135.562 179.023H129.641V184.947H135.562V179.023Z" fill="#E6EEFB"/>
<path d="M135.562 214.852H129.641V220.775H135.562V214.852Z" fill="#E6EEFB"/>
<path d="M167.976 0H162.055V5.92359H167.976V0Z" fill="#E6EEFB"/>
<path d="M167.976 35.7988H162.055V41.7224H167.976V35.7988Z" fill="#E6EEFB"/>
<path d="M167.976 71.627H162.055V77.5505H167.976V71.627Z" fill="#E6EEFB"/>
<path d="M167.976 107.426H162.055V113.349H167.976V107.426Z" fill="#E6EEFB"/>
<path d="M167.976 143.225H162.055V149.148H167.976V143.225Z" fill="#E6EEFB"/>
<path d="M167.976 179.023H162.055V184.947H167.976V179.023Z" fill="#E6EEFB"/>
<path d="M167.976 214.852H162.055V220.775H167.976V214.852Z" fill="#E6EEFB"/>
<path d="M200.382 0H194.461V5.92359H200.382V0Z" fill="#E6EEFB"/>
<path d="M200.382 35.7988H194.461V41.7224H200.382V35.7988Z" fill="#E6EEFB"/>
<path d="M200.382 71.627H194.461V77.5505H200.382V71.627Z" fill="#E6EEFB"/>
<path d="M200.382 107.426H194.461V113.349H200.382V107.426Z" fill="#E6EEFB"/>
<path d="M200.382 143.225H194.461V149.148H200.382V143.225Z" fill="#E6EEFB"/>
<path d="M200.382 179.023H194.461V184.947H200.382V179.023Z" fill="#E6EEFB"/>
<path d="M200.382 214.852H194.461V220.775H200.382V214.852Z" fill="#E6EEFB"/>
<path d="M232.765 0H226.844V5.92359H232.765V0Z" fill="#E6EEFB"/>
<path d="M232.765 35.7988H226.844V41.7224H232.765V35.7988Z" fill="#E6EEFB"/>
<path d="M232.765 71.627H226.844V77.5505H232.765V71.627Z" fill="#E6EEFB"/>
<path d="M232.765 107.426H226.844V113.349H232.765V107.426Z" fill="#E6EEFB"/>
<path d="M232.765 143.225H226.844V149.148H232.765V143.225Z" fill="#E6EEFB"/>
<path d="M232.765 179.023H226.844V184.947H232.765V179.023Z" fill="#E6EEFB"/>
<path d="M232.765 214.852H226.844V220.775H232.765V214.852Z" fill="#E6EEFB"/>
<path d="M265.179 0H259.258V5.92359H265.179V0Z" fill="#E6EEFB"/>
<path d="M265.179 35.7988H259.258V41.7224H265.179V35.7988Z" fill="#E6EEFB"/>
<path d="M265.179 71.627H259.258V77.5505H265.179V71.627Z" fill="#E6EEFB"/>
<path d="M265.179 107.426H259.258V113.349H265.179V107.426Z" fill="#E6EEFB"/>
<path d="M265.179 143.225H259.258V149.148H265.179V143.225Z" fill="#E6EEFB"/>
<path d="M265.179 179.023H259.258V184.947H265.179V179.023Z" fill="#E6EEFB"/>
<path d="M265.179 214.852H259.258V220.775H265.179V214.852Z" fill="#E6EEFB"/>
<path d="M297.586 0H291.664V5.92359H297.586V0Z" fill="#E6EEFB"/>
<path d="M297.586 35.7988H291.664V41.7224H297.586V35.7988Z" fill="#E6EEFB"/>
<path d="M297.586 71.627H291.664V77.5505H297.586V71.627Z" fill="#E6EEFB"/>
<path d="M297.586 107.426H291.664V113.349H297.586V107.426Z" fill="#E6EEFB"/>
<path d="M297.586 143.225H291.664V149.148H297.586V143.225Z" fill="#E6EEFB"/>
<path d="M297.586 179.023H291.664V184.947H297.586V179.023Z" fill="#E6EEFB"/>
<path d="M297.586 214.852H291.664V220.775H297.586V214.852Z" fill="#E6EEFB"/>
<path d="M330 0H324.078V5.92359H330V0Z" fill="#E6EEFB"/>
<path d="M330 35.7988H324.078V41.7224H330V35.7988Z" fill="#E6EEFB"/>
<path d="M330 71.627H324.078V77.5505H330V71.627Z" fill="#E6EEFB"/>
<path d="M330 107.426H324.078V113.349H330V107.426Z" fill="#E6EEFB"/>
<path d="M330 143.225H324.078V149.148H330V143.225Z" fill="#E6EEFB"/>
<path d="M330 179.023H324.078V184.947H330V179.023Z" fill="#E6EEFB"/>
<path d="M330 214.852H324.078V220.775H330V214.852Z" fill="#E6EEFB"/>
</g>
</svg>
