<svg width="149" height="358" viewBox="0 0 149 358" fill="none" xmlns="http://www.w3.org/2000/svg">
<mask id="mask0_7291_7304" style="mask-type:alpha" maskUnits="userSpaceOnUse" x="0" y="0" width="150" height="358">
<rect width="150" height="358" fill="#D9D9D9"/>
</mask>
<g mask="url(#mask0_7291_7304)">
<path d="M5.92146 0H0V5.92359H5.92146V0Z" fill="#E6EEFB"/>
<path d="M5.92146 35.7988H0V41.7224H5.92146V35.7988Z" fill="#E6EEFB"/>
<path d="M5.92146 71.627H0V77.5505H5.92146V71.627Z" fill="#E6EEFB"/>
<path d="M5.92146 107.426H0V113.349H5.92146V107.426Z" fill="#E6EEFB"/>
<path d="M5.92146 143.225H0V149.148H5.92146V143.225Z" fill="#E6EEFB"/>
<path d="M5.92146 179.023H0V184.947H5.92146V179.023Z" fill="#E6EEFB"/>
<path d="M5.92146 214.852H0V220.775H5.92146V214.852Z" fill="#E6EEFB"/>
<path d="M5.92146 250.65H0V256.574H5.92146V250.65Z" fill="#E6EEFB"/>
<path d="M5.92146 286.449H0V292.373H5.92146V286.449Z" fill="#E6EEFB"/>
<path d="M5.92146 322.277H0V328.201H5.92146V322.277Z" fill="#E6EEFB"/>
<path d="M38.3355 0H32.4141V5.92359H38.3355V0Z" fill="#E6EEFB"/>
<path d="M38.3355 35.7988H32.4141V41.7224H38.3355V35.7988Z" fill="#E6EEFB"/>
<path d="M38.3355 71.627H32.4141V77.5505H38.3355V71.627Z" fill="#E6EEFB"/>
<path d="M38.3355 107.426H32.4141V113.349H38.3355V107.426Z" fill="#E6EEFB"/>
<path d="M38.3355 143.225H32.4141V149.148H38.3355V143.225Z" fill="#E6EEFB"/>
<path d="M38.3355 179.023H32.4141V184.947H38.3355V179.023Z" fill="#E6EEFB"/>
<path d="M38.3355 214.852H32.4141V220.775H38.3355V214.852Z" fill="#E6EEFB"/>
<path d="M38.3355 250.65H32.4141V256.574H38.3355V250.65Z" fill="#E6EEFB"/>
<path d="M38.3355 286.449H32.4141V292.373H38.3355V286.449Z" fill="#E6EEFB"/>
<path d="M38.3355 322.277H32.4141V328.201H38.3355V322.277Z" fill="#E6EEFB"/>
<path d="M70.7418 0H64.8203V5.92359H70.7418V0Z" fill="#E6EEFB"/>
<path d="M70.7418 35.7988H64.8203V41.7224H70.7418V35.7988Z" fill="#E6EEFB"/>
<path d="M70.7418 71.627H64.8203V77.5505H70.7418V71.627Z" fill="#E6EEFB"/>
<path d="M70.7418 107.426H64.8203V113.349H70.7418V107.426Z" fill="#E6EEFB"/>
<path d="M70.7418 143.225H64.8203V149.148H70.7418V143.225Z" fill="#E6EEFB"/>
<path d="M70.7418 179.023H64.8203V184.947H70.7418V179.023Z" fill="#E6EEFB"/>
<path d="M70.7418 214.852H64.8203V220.775H70.7418V214.852Z" fill="#E6EEFB"/>
<path d="M70.7418 250.65H64.8203V256.574H70.7418V250.65Z" fill="#E6EEFB"/>
<path d="M70.7418 286.449H64.8203V292.373H70.7418V286.449Z" fill="#E6EEFB"/>
<path d="M70.7418 322.277H64.8203V328.201H70.7418V322.277Z" fill="#E6EEFB"/>
<path d="M103.156 0H97.2344V5.92359H103.156V0Z" fill="#E6EEFB"/>
<path d="M103.156 35.7988H97.2344V41.7224H103.156V35.7988Z" fill="#E6EEFB"/>
<path d="M103.156 71.627H97.2344V77.5505H103.156V71.627Z" fill="#E6EEFB"/>
<path d="M103.156 107.426H97.2344V113.349H103.156V107.426Z" fill="#E6EEFB"/>
<path d="M103.156 143.225H97.2344V149.148H103.156V143.225Z" fill="#E6EEFB"/>
<path d="M103.156 179.023H97.2344V184.947H103.156V179.023Z" fill="#E6EEFB"/>
<path d="M103.156 214.852H97.2344V220.775H103.156V214.852Z" fill="#E6EEFB"/>
<path d="M103.156 250.65H97.2344V256.574H103.156V250.65Z" fill="#E6EEFB"/>
<path d="M103.156 286.449H97.2344V292.373H103.156V286.449Z" fill="#E6EEFB"/>
<path d="M103.156 322.277H97.2344V328.201H103.156V322.277Z" fill="#E6EEFB"/>
<path d="M135.562 0H129.641V5.92359H135.562V0Z" fill="#E6EEFB"/>
<path d="M135.562 35.7988H129.641V41.7224H135.562V35.7988Z" fill="#E6EEFB"/>
<path d="M135.562 71.627H129.641V77.5505H135.562V71.627Z" fill="#E6EEFB"/>
<path d="M135.562 107.426H129.641V113.349H135.562V107.426Z" fill="#E6EEFB"/>
<path d="M135.562 143.225H129.641V149.148H135.562V143.225Z" fill="#E6EEFB"/>
<path d="M135.562 179.023H129.641V184.947H135.562V179.023Z" fill="#E6EEFB"/>
<path d="M135.562 214.852H129.641V220.775H135.562V214.852Z" fill="#E6EEFB"/>
<path d="M135.562 250.65H129.641V256.574H135.562V250.65Z" fill="#E6EEFB"/>
<path d="M135.562 286.449H129.641V292.373H135.562V286.449Z" fill="#E6EEFB"/>
<path d="M135.562 322.277H129.641V328.201H135.562V322.277Z" fill="#E6EEFB"/>
<path d="M103.765 0H97.8438V5.92359H103.765V0Z" fill="#E6EEFB"/>
<path d="M103.765 35.7988H97.8438V41.7224H103.765V35.7988Z" fill="#E6EEFB"/>
<path d="M103.765 71.627H97.8438V77.5505H103.765V71.627Z" fill="#E6EEFB"/>
<path d="M103.765 107.426H97.8438V113.349H103.765V107.426Z" fill="#E6EEFB"/>
<path d="M103.765 143.225H97.8438V149.148H103.765V143.225Z" fill="#E6EEFB"/>
<path d="M103.765 179.023H97.8438V184.947H103.765V179.023Z" fill="#E6EEFB"/>
<path d="M103.765 214.852H97.8438V220.775H103.765V214.852Z" fill="#E6EEFB"/>
<path d="M103.765 250.65H97.8438V256.574H103.765V250.65Z" fill="#E6EEFB"/>
<path d="M103.765 286.449H97.8438V292.373H103.765V286.449Z" fill="#E6EEFB"/>
<path d="M103.765 322.277H97.8438V328.201H103.765V322.277Z" fill="#E6EEFB"/>
<path d="M136.179 0H130.258V5.92359H136.179V0Z" fill="#E6EEFB"/>
<path d="M136.179 35.7988H130.258V41.7224H136.179V35.7988Z" fill="#E6EEFB"/>
<path d="M136.179 71.627H130.258V77.5505H136.179V71.627Z" fill="#E6EEFB"/>
<path d="M136.179 107.426H130.258V113.349H136.179V107.426Z" fill="#E6EEFB"/>
<path d="M136.179 143.225H130.258V149.148H136.179V143.225Z" fill="#E6EEFB"/>
<path d="M136.179 179.023H130.258V184.947H136.179V179.023Z" fill="#E6EEFB"/>
<path d="M136.179 214.852H130.258V220.775H136.179V214.852Z" fill="#E6EEFB"/>
<path d="M136.179 250.65H130.258V256.574H136.179V250.65Z" fill="#E6EEFB"/>
<path d="M136.179 286.449H130.258V292.373H136.179V286.449Z" fill="#E6EEFB"/>
<path d="M136.179 322.277H130.258V328.201H136.179V322.277Z" fill="#E6EEFB"/>
<path d="M72.9996 0H67.0781V5.92359H72.9996V0Z" fill="#E6EEFB"/>
<path d="M72.9996 35.7988H67.0781V41.7224H72.9996V35.7988Z" fill="#E6EEFB"/>
<path d="M72.9996 71.627H67.0781V77.5505H72.9996V71.627Z" fill="#E6EEFB"/>
<path d="M72.9996 107.426H67.0781V113.349H72.9996V107.426Z" fill="#E6EEFB"/>
<path d="M72.9996 143.225H67.0781V149.148H72.9996V143.225Z" fill="#E6EEFB"/>
<path d="M72.9996 179.023H67.0781V184.947H72.9996V179.023Z" fill="#E6EEFB"/>
<path d="M72.9996 214.852H67.0781V220.775H72.9996V214.852Z" fill="#E6EEFB"/>
<path d="M72.9996 250.65H67.0781V256.574H72.9996V250.65Z" fill="#E6EEFB"/>
<path d="M72.9996 286.449H67.0781V292.373H72.9996V286.449Z" fill="#E6EEFB"/>
<path d="M72.9996 322.277H67.0781V328.201H72.9996V322.277Z" fill="#E6EEFB"/>
</g>
</svg>
