<svg width="72" height="72" viewBox="0 0 72 72" fill="none" xmlns="http://www.w3.org/2000/svg">
<rect width="72" height="72" rx="36" fill="#D63546"/>
<g clip-path="url(#clip0_7092_1379)">
<path d="M36 56.3438C47.2383 56.3438 56.3438 47.2383 56.3438 36C56.3438 24.7617 47.2383 15.6563 36 15.6563C24.7617 15.6563 15.6563 24.7617 15.6563 36C15.6563 47.2383 24.7617 56.3438 36 56.3438ZM18.2813 36C18.2813 26.2629 26.1645 18.2813 36 18.2813C45.7371 18.2813 53.7188 26.1645 53.7188 36C53.7188 45.7371 45.8355 53.7188 36 53.7188C26.2629 53.7188 18.2813 45.8355 18.2813 36ZM25.8691 34.9746L35.3027 25.5328C35.6883 25.1473 36.3117 25.1473 36.6973 25.5328L46.1309 34.9746C46.5164 35.3602 46.5164 35.9836 46.1309 36.3691L45.5648 36.9352C45.1793 37.3207 44.5395 37.3207 44.1621 36.9188L37.3945 29.9051L37.3945 45.5156C37.3945 46.057 36.9516 46.5 36.4102 46.5L35.5898 46.5C35.0484 46.5 34.6055 46.057 34.6055 45.5156L34.6055 29.9051L27.8379 36.927C27.4523 37.3207 26.8207 37.3289 26.4352 36.9434L25.8691 36.3773C25.4836 35.9836 25.4836 35.3602 25.8691 34.9746Z" fill="white"/>
</g>
<defs>
<clipPath id="clip0_7092_1379">
<rect width="42" height="42" fill="white" transform="translate(57 15) rotate(90)"/>
</clipPath>
</defs>
</svg>
