<svg width="30" height="30" viewBox="0 0 30 30" fill="none" xmlns="http://www.w3.org/2000/svg">
<g clip-path="url(#clip0_7092_1296)">
<path d="M0.468751 15C0.468751 23.0273 6.97266 29.5312 15 29.5312C23.0273 29.5312 29.5313 23.0273 29.5313 15C29.5313 6.97266 23.0273 0.468749 15 0.468749C6.97266 0.468748 0.468752 6.97265 0.468751 15ZM15 2.34375C21.9551 2.34375 27.6563 7.97461 27.6563 15C27.6563 21.9551 22.0254 27.6562 15 27.6562C8.04492 27.6562 2.34375 22.0254 2.34375 15C2.34375 8.04492 7.97461 2.34375 15 2.34375ZM15.7324 7.76367L22.4766 14.502C22.752 14.7773 22.752 15.2227 22.4766 15.498L15.7324 22.2363C15.457 22.5117 15.0117 22.5117 14.7363 22.2363L14.332 21.832C14.0566 21.5566 14.0566 21.0996 14.3437 20.8301L19.3535 15.9961L8.20313 15.9961C7.81641 15.9961 7.5 15.6797 7.5 15.293L7.5 14.707C7.5 14.3203 7.81641 14.0039 8.20313 14.0039L19.3535 14.0039L14.3379 9.16992C14.0566 8.89453 14.0508 8.44336 14.3262 8.16797L14.7305 7.76367C15.0117 7.48828 15.457 7.48828 15.7324 7.76367Z" fill="white"/>
</g>
<defs>
<clipPath id="clip0_7092_1296">
<rect width="30" height="30" fill="white" transform="translate(30 30) rotate(-180)"/>
</clipPath>
</defs>
</svg>
