<svg width="331" height="364" viewBox="0 0 331 364" fill="none" xmlns="http://www.w3.org/2000/svg">
<g clip-path="url(#clip0_7092_816)">
<path d="M5.92731 0H0V5.92359H5.92731V0Z" fill="#E6EEFB"/>
<path d="M5.92731 35.7988H0V41.7224H5.92731V35.7988Z" fill="#E6EEFB"/>
<path d="M5.92731 71.627H0V77.5505H5.92731V71.627Z" fill="#E6EEFB"/>
<path d="M5.92731 107.426H0V113.349H5.92731V107.426Z" fill="#E6EEFB"/>
<path d="M5.92731 143.225H0V149.148H5.92731V143.225Z" fill="#E6EEFB"/>
<path d="M5.92731 179.023H0V184.947H5.92731V179.023Z" fill="#E6EEFB"/>
<path d="M5.92731 214.852H0V220.775H5.92731V214.852Z" fill="#E6EEFB"/>
<path d="M5.92731 250.65H0V256.574H5.92731V250.65Z" fill="#E6EEFB"/>
<path d="M5.92731 286.449H0V292.373H5.92731V286.449Z" fill="#E6EEFB"/>
<path d="M5.92731 322.277H0V328.201H5.92731V322.277Z" fill="#E6EEFB"/>
<path d="M5.92731 358.076H0V364H5.92731V358.076Z" fill="#E6EEFB"/>
<path d="M38.3726 0H32.4453V5.92359H38.3726V0Z" fill="#E6EEFB"/>
<path d="M38.3726 35.7988H32.4453V41.7224H38.3726V35.7988Z" fill="#E6EEFB"/>
<path d="M38.3726 71.627H32.4453V77.5505H38.3726V71.627Z" fill="#E6EEFB"/>
<path d="M38.3726 107.426H32.4453V113.349H38.3726V107.426Z" fill="#E6EEFB"/>
<path d="M38.3726 143.225H32.4453V149.148H38.3726V143.225Z" fill="#E6EEFB"/>
<path d="M38.3726 179.023H32.4453V184.947H38.3726V179.023Z" fill="#E6EEFB"/>
<path d="M38.3726 214.852H32.4453V220.775H38.3726V214.852Z" fill="#E6EEFB"/>
<path d="M38.3726 250.65H32.4453V256.574H38.3726V250.65Z" fill="#E6EEFB"/>
<path d="M38.3726 286.449H32.4453V292.373H38.3726V286.449Z" fill="#E6EEFB"/>
<path d="M38.3726 322.277H32.4453V328.201H38.3726V322.277Z" fill="#E6EEFB"/>
<path d="M38.3726 358.076H32.4453V364H38.3726V358.076Z" fill="#E6EEFB"/>
<path d="M70.8101 0H64.8828V5.92359H70.8101V0Z" fill="#E6EEFB"/>
<path d="M70.8101 35.7988H64.8828V41.7224H70.8101V35.7988Z" fill="#E6EEFB"/>
<path d="M70.8101 71.627H64.8828V77.5505H70.8101V71.627Z" fill="#E6EEFB"/>
<path d="M70.8101 107.426H64.8828V113.349H70.8101V107.426Z" fill="#E6EEFB"/>
<path d="M70.8101 143.225H64.8828V149.148H70.8101V143.225Z" fill="#E6EEFB"/>
<path d="M70.8101 179.023H64.8828V184.947H70.8101V179.023Z" fill="#E6EEFB"/>
<path d="M70.8101 214.852H64.8828V220.775H70.8101V214.852Z" fill="#E6EEFB"/>
<path d="M70.8101 250.65H64.8828V256.574H70.8101V250.65Z" fill="#E6EEFB"/>
<path d="M70.8101 286.449H64.8828V292.373H70.8101V286.449Z" fill="#E6EEFB"/>
<path d="M70.8101 322.277H64.8828V328.201H70.8101V322.277Z" fill="#E6EEFB"/>
<path d="M70.8101 358.076H64.8828V364H70.8101V358.076Z" fill="#E6EEFB"/>
<path d="M103.255 0H97.3281V5.92359H103.255V0Z" fill="#E6EEFB"/>
<path d="M103.255 35.7988H97.3281V41.7224H103.255V35.7988Z" fill="#E6EEFB"/>
<path d="M103.255 71.627H97.3281V77.5505H103.255V71.627Z" fill="#E6EEFB"/>
<path d="M103.255 107.426H97.3281V113.349H103.255V107.426Z" fill="#E6EEFB"/>
<path d="M103.255 143.225H97.3281V149.148H103.255V143.225Z" fill="#E6EEFB"/>
<path d="M103.255 179.023H97.3281V184.947H103.255V179.023Z" fill="#E6EEFB"/>
<path d="M103.255 214.852H97.3281V220.775H103.255V214.852Z" fill="#E6EEFB"/>
<path d="M103.255 250.65H97.3281V256.574H103.255V250.65Z" fill="#E6EEFB"/>
<path d="M103.255 286.449H97.3281V292.373H103.255V286.449Z" fill="#E6EEFB"/>
<path d="M103.255 322.277H97.3281V328.201H103.255V322.277Z" fill="#E6EEFB"/>
<path d="M103.255 358.076H97.3281V364H103.255V358.076Z" fill="#E6EEFB"/>
<path d="M135.701 0H129.773V5.92359H135.701V0Z" fill="#E6EEFB"/>
<path d="M135.701 35.7988H129.773V41.7224H135.701V35.7988Z" fill="#E6EEFB"/>
<path d="M135.701 71.627H129.773V77.5505H135.701V71.627Z" fill="#E6EEFB"/>
<path d="M135.701 107.426H129.773V113.349H135.701V107.426Z" fill="#E6EEFB"/>
<path d="M135.701 143.225H129.773V149.148H135.701V143.225Z" fill="#E6EEFB"/>
<path d="M135.701 179.023H129.773V184.947H135.701V179.023Z" fill="#E6EEFB"/>
<path d="M135.701 214.852H129.773V220.775H135.701V214.852Z" fill="#E6EEFB"/>
<path d="M135.701 250.65H129.773V256.574H135.701V250.65Z" fill="#E6EEFB"/>
<path d="M135.701 286.449H129.773V292.373H135.701V286.449Z" fill="#E6EEFB"/>
<path d="M135.701 322.277H129.773V328.201H135.701V322.277Z" fill="#E6EEFB"/>
<path d="M135.701 358.076H129.773V364H135.701V358.076Z" fill="#E6EEFB"/>
<path d="M168.138 0H162.211V5.92359H168.138V0Z" fill="#E6EEFB"/>
<path d="M168.138 35.7988H162.211V41.7224H168.138V35.7988Z" fill="#E6EEFB"/>
<path d="M168.138 71.627H162.211V77.5505H168.138V71.627Z" fill="#E6EEFB"/>
<path d="M168.138 107.426H162.211V113.349H168.138V107.426Z" fill="#E6EEFB"/>
<path d="M168.138 143.225H162.211V149.148H168.138V143.225Z" fill="#E6EEFB"/>
<path d="M168.138 179.023H162.211V184.947H168.138V179.023Z" fill="#E6EEFB"/>
<path d="M168.138 214.852H162.211V220.775H168.138V214.852Z" fill="#E6EEFB"/>
<path d="M168.138 250.65H162.211V256.574H168.138V250.65Z" fill="#E6EEFB"/>
<path d="M168.138 286.449H162.211V292.373H168.138V286.449Z" fill="#E6EEFB"/>
<path d="M168.138 322.277H162.211V328.201H168.138V322.277Z" fill="#E6EEFB"/>
<path d="M168.138 358.076H162.211V364H168.138V358.076Z" fill="#E6EEFB"/>
<path d="M200.584 0H194.656V5.92359H200.584V0Z" fill="#E6EEFB"/>
<path d="M200.584 35.7988H194.656V41.7224H200.584V35.7988Z" fill="#E6EEFB"/>
<path d="M200.584 71.627H194.656V77.5505H200.584V71.627Z" fill="#E6EEFB"/>
<path d="M200.584 107.426H194.656V113.349H200.584V107.426Z" fill="#E6EEFB"/>
<path d="M200.584 143.225H194.656V149.148H200.584V143.225Z" fill="#E6EEFB"/>
<path d="M200.584 179.023H194.656V184.947H200.584V179.023Z" fill="#E6EEFB"/>
<path d="M200.584 214.852H194.656V220.775H200.584V214.852Z" fill="#E6EEFB"/>
<path d="M200.584 250.65H194.656V256.574H200.584V250.65Z" fill="#E6EEFB"/>
<path d="M200.584 286.449H194.656V292.373H200.584V286.449Z" fill="#E6EEFB"/>
<path d="M200.584 322.277H194.656V328.201H200.584V322.277Z" fill="#E6EEFB"/>
<path d="M200.584 358.076H194.656V364H200.584V358.076Z" fill="#E6EEFB"/>
<path d="M232.998 0H227.07V5.92359H232.998V0Z" fill="#E6EEFB"/>
<path d="M232.998 35.7988H227.07V41.7224H232.998V35.7988Z" fill="#E6EEFB"/>
<path d="M232.998 71.627H227.07V77.5505H232.998V71.627Z" fill="#E6EEFB"/>
<path d="M232.998 107.426H227.07V113.349H232.998V107.426Z" fill="#E6EEFB"/>
<path d="M232.998 143.225H227.07V149.148H232.998V143.225Z" fill="#E6EEFB"/>
<path d="M232.998 179.023H227.07V184.947H232.998V179.023Z" fill="#E6EEFB"/>
<path d="M232.998 214.852H227.07V220.775H232.998V214.852Z" fill="#E6EEFB"/>
<path d="M232.998 250.65H227.07V256.574H232.998V250.65Z" fill="#E6EEFB"/>
<path d="M232.998 286.449H227.07V292.373H232.998V286.449Z" fill="#E6EEFB"/>
<path d="M232.998 322.277H227.07V328.201H232.998V322.277Z" fill="#E6EEFB"/>
<path d="M232.998 358.076H227.07V364H232.998V358.076Z" fill="#E6EEFB"/>
<path d="M265.443 0H259.516V5.92359H265.443V0Z" fill="#E6EEFB"/>
<path d="M265.443 35.7988H259.516V41.7224H265.443V35.7988Z" fill="#E6EEFB"/>
<path d="M265.443 71.627H259.516V77.5505H265.443V71.627Z" fill="#E6EEFB"/>
<path d="M265.443 107.426H259.516V113.349H265.443V107.426Z" fill="#E6EEFB"/>
<path d="M265.443 143.225H259.516V149.148H265.443V143.225Z" fill="#E6EEFB"/>
<path d="M265.443 179.023H259.516V184.947H265.443V179.023Z" fill="#E6EEFB"/>
<path d="M265.443 214.852H259.516V220.775H265.443V214.852Z" fill="#E6EEFB"/>
<path d="M265.443 250.65H259.516V256.574H265.443V250.65Z" fill="#E6EEFB"/>
<path d="M265.443 286.449H259.516V292.373H265.443V286.449Z" fill="#E6EEFB"/>
<path d="M265.443 322.277H259.516V328.201H265.443V322.277Z" fill="#E6EEFB"/>
<path d="M265.443 358.076H259.516V364H265.443V358.076Z" fill="#E6EEFB"/>
<path d="M297.88 0H291.953V5.92359H297.88V0Z" fill="#E6EEFB"/>
<path d="M297.88 35.7988H291.953V41.7224H297.88V35.7988Z" fill="#E6EEFB"/>
<path d="M297.88 71.627H291.953V77.5505H297.88V71.627Z" fill="#E6EEFB"/>
<path d="M297.88 107.426H291.953V113.349H297.88V107.426Z" fill="#E6EEFB"/>
<path d="M297.88 143.225H291.953V149.148H297.88V143.225Z" fill="#E6EEFB"/>
<path d="M297.88 179.023H291.953V184.947H297.88V179.023Z" fill="#E6EEFB"/>
<path d="M297.88 214.852H291.953V220.775H297.88V214.852Z" fill="#E6EEFB"/>
<path d="M297.88 250.65H291.953V256.574H297.88V250.65Z" fill="#E6EEFB"/>
<path d="M297.88 286.449H291.953V292.373H297.88V286.449Z" fill="#E6EEFB"/>
<path d="M297.88 322.277H291.953V328.201H297.88V322.277Z" fill="#E6EEFB"/>
<path d="M297.88 358.076H291.953V364H297.88V358.076Z" fill="#E6EEFB"/>
<path d="M330.326 0H324.398V5.92359H330.326V0Z" fill="#E6EEFB"/>
<path d="M330.326 35.7988H324.398V41.7224H330.326V35.7988Z" fill="#E6EEFB"/>
<path d="M330.326 71.627H324.398V77.5505H330.326V71.627Z" fill="#E6EEFB"/>
<path d="M330.326 107.426H324.398V113.349H330.326V107.426Z" fill="#E6EEFB"/>
<path d="M330.326 143.225H324.398V149.148H330.326V143.225Z" fill="#E6EEFB"/>
<path d="M330.326 179.023H324.398V184.947H330.326V179.023Z" fill="#E6EEFB"/>
<path d="M330.326 214.852H324.398V220.775H330.326V214.852Z" fill="#E6EEFB"/>
<path d="M330.326 250.65H324.398V256.574H330.326V250.65Z" fill="#E6EEFB"/>
<path d="M330.326 286.449H324.398V292.373H330.326V286.449Z" fill="#E6EEFB"/>
<path d="M330.326 322.277H324.398V328.201H330.326V322.277Z" fill="#E6EEFB"/>
<path d="M330.326 358.076H324.398V364H330.326V358.076Z" fill="#E6EEFB"/>
</g>
<defs>
<clipPath id="clip0_7092_816">
<rect width="330.326" height="364" fill="white"/>
</clipPath>
</defs>
</svg>
