<svg width="253" height="364" viewBox="0 0 253 364" fill="none" xmlns="http://www.w3.org/2000/svg">
<path d="M26.1558 0H20.2344V5.92359H26.1558V0Z" fill="#C4D2EA"/>
<path d="M26.1558 35.7988H20.2344V41.7224H26.1558V35.7988Z" fill="#C4D2EA"/>
<path d="M26.1558 71.627H20.2344V77.5505H26.1558V71.627Z" fill="#C4D2EA"/>
<path d="M26.1558 107.426H20.2344V113.349H26.1558V107.426Z" fill="#C4D2EA"/>
<path d="M26.1558 143.225H20.2344V149.148H26.1558V143.225Z" fill="#C4D2EA"/>
<path d="M26.1558 179.023H20.2344V184.947H26.1558V179.023Z" fill="#C4D2EA"/>
<path d="M26.1558 214.852H20.2344V220.775H26.1558V214.852Z" fill="#C4D2EA"/>
<path d="M26.1558 250.65H20.2344V256.574H26.1558V250.65Z" fill="#C4D2EA"/>
<path d="M26.1558 286.449H20.2344V292.373H26.1558V286.449Z" fill="#C4D2EA"/>
<path d="M26.1558 322.277H20.2344V328.201H26.1558V322.277Z" fill="#C4D2EA"/>
<path d="M26.1558 358.076H20.2344V364H26.1558V358.076Z" fill="#C4D2EA"/>
<path d="M58.5621 0H52.6406V5.92359H58.5621V0Z" fill="#C4D2EA"/>
<path d="M58.5621 35.7988H52.6406V41.7224H58.5621V35.7988Z" fill="#C4D2EA"/>
<path d="M58.5621 71.627H52.6406V77.5505H58.5621V71.627Z" fill="#C4D2EA"/>
<path d="M58.5621 107.426H52.6406V113.349H58.5621V107.426Z" fill="#C4D2EA"/>
<path d="M58.5621 143.225H52.6406V149.148H58.5621V143.225Z" fill="#C4D2EA"/>
<path d="M58.5621 179.023H52.6406V184.947H58.5621V179.023Z" fill="#C4D2EA"/>
<path d="M58.5621 214.852H52.6406V220.775H58.5621V214.852Z" fill="#C4D2EA"/>
<path d="M58.5621 250.65H52.6406V256.574H58.5621V250.65Z" fill="#C4D2EA"/>
<path d="M58.5621 286.449H52.6406V292.373H58.5621V286.449Z" fill="#C4D2EA"/>
<path d="M58.5621 322.277H52.6406V328.201H58.5621V322.277Z" fill="#C4D2EA"/>
<path d="M58.5621 358.076H52.6406V364H58.5621V358.076Z" fill="#C4D2EA"/>
<path d="M90.9762 0H85.0547V5.92359H90.9762V0Z" fill="#C4D2EA"/>
<path d="M90.9762 35.7988H85.0547V41.7224H90.9762V35.7988Z" fill="#C4D2EA"/>
<path d="M90.9762 71.627H85.0547V77.5505H90.9762V71.627Z" fill="#C4D2EA"/>
<path d="M90.9762 107.426H85.0547V113.349H90.9762V107.426Z" fill="#C4D2EA"/>
<path d="M90.9762 143.225H85.0547V149.148H90.9762V143.225Z" fill="#C4D2EA"/>
<path d="M90.9762 179.023H85.0547V184.947H90.9762V179.023Z" fill="#C4D2EA"/>
<path d="M90.9762 214.852H85.0547V220.775H90.9762V214.852Z" fill="#C4D2EA"/>
<path d="M90.9762 250.65H85.0547V256.574H90.9762V250.65Z" fill="#C4D2EA"/>
<path d="M90.9762 286.449H85.0547V292.373H90.9762V286.449Z" fill="#C4D2EA"/>
<path d="M90.9762 322.277H85.0547V328.201H90.9762V322.277Z" fill="#C4D2EA"/>
<path d="M90.9762 358.076H85.0547V364H90.9762V358.076Z" fill="#C4D2EA"/>
<path d="M123.382 0H117.461V5.92359H123.382V0Z" fill="#C4D2EA"/>
<path d="M123.382 35.7988H117.461V41.7224H123.382V35.7988Z" fill="#C4D2EA"/>
<path d="M123.382 71.627H117.461V77.5505H123.382V71.627Z" fill="#C4D2EA"/>
<path d="M123.382 107.426H117.461V113.349H123.382V107.426Z" fill="#C4D2EA"/>
<path d="M123.382 143.225H117.461V149.148H123.382V143.225Z" fill="#C4D2EA"/>
<path d="M123.382 179.023H117.461V184.947H123.382V179.023Z" fill="#C4D2EA"/>
<path d="M123.382 214.852H117.461V220.775H123.382V214.852Z" fill="#C4D2EA"/>
<path d="M123.382 250.65H117.461V256.574H123.382V250.65Z" fill="#C4D2EA"/>
<path d="M123.382 286.449H117.461V292.373H123.382V286.449Z" fill="#C4D2EA"/>
<path d="M123.382 322.277H117.461V328.201H123.382V322.277Z" fill="#C4D2EA"/>
<path d="M123.382 358.076H117.461V364H123.382V358.076Z" fill="#C4D2EA"/>
<path d="M155.765 0H149.844V5.92359H155.765V0Z" fill="#C4D2EA"/>
<path d="M155.765 35.7988H149.844V41.7224H155.765V35.7988Z" fill="#C4D2EA"/>
<path d="M155.765 71.627H149.844V77.5505H155.765V71.627Z" fill="#C4D2EA"/>
<path d="M155.765 107.426H149.844V113.349H155.765V107.426Z" fill="#C4D2EA"/>
<path d="M155.765 143.225H149.844V149.148H155.765V143.225Z" fill="#C4D2EA"/>
<path d="M155.765 179.023H149.844V184.947H155.765V179.023Z" fill="#C4D2EA"/>
<path d="M155.765 214.852H149.844V220.775H155.765V214.852Z" fill="#C4D2EA"/>
<path d="M155.765 250.65H149.844V256.574H155.765V250.65Z" fill="#C4D2EA"/>
<path d="M155.765 286.449H149.844V292.373H155.765V286.449Z" fill="#C4D2EA"/>
<path d="M155.765 322.277H149.844V328.201H155.765V322.277Z" fill="#C4D2EA"/>
<path d="M155.765 358.076H149.844V364H155.765V358.076Z" fill="#C4D2EA"/>
<path d="M188.179 0H182.258V5.92359H188.179V0Z" fill="#C4D2EA"/>
<path d="M188.179 35.7988H182.258V41.7224H188.179V35.7988Z" fill="#C4D2EA"/>
<path d="M188.179 71.627H182.258V77.5505H188.179V71.627Z" fill="#C4D2EA"/>
<path d="M188.179 107.426H182.258V113.349H188.179V107.426Z" fill="#C4D2EA"/>
<path d="M188.179 143.225H182.258V149.148H188.179V143.225Z" fill="#C4D2EA"/>
<path d="M188.179 179.023H182.258V184.947H188.179V179.023Z" fill="#C4D2EA"/>
<path d="M188.179 214.852H182.258V220.775H188.179V214.852Z" fill="#C4D2EA"/>
<path d="M188.179 250.65H182.258V256.574H188.179V250.65Z" fill="#C4D2EA"/>
<path d="M188.179 286.449H182.258V292.373H188.179V286.449Z" fill="#C4D2EA"/>
<path d="M188.179 322.277H182.258V328.201H188.179V322.277Z" fill="#C4D2EA"/>
<path d="M188.179 358.076H182.258V364H188.179V358.076Z" fill="#C4D2EA"/>
<path d="M220.586 0H214.664V5.92359H220.586V0Z" fill="#C4D2EA"/>
<path d="M220.586 35.7988H214.664V41.7224H220.586V35.7988Z" fill="#C4D2EA"/>
<path d="M220.586 71.627H214.664V77.5505H220.586V71.627Z" fill="#C4D2EA"/>
<path d="M220.586 107.426H214.664V113.349H220.586V107.426Z" fill="#C4D2EA"/>
<path d="M220.586 143.225H214.664V149.148H220.586V143.225Z" fill="#C4D2EA"/>
<path d="M220.586 179.023H214.664V184.947H220.586V179.023Z" fill="#C4D2EA"/>
<path d="M220.586 214.852H214.664V220.775H220.586V214.852Z" fill="#C4D2EA"/>
<path d="M220.586 250.65H214.664V256.574H220.586V250.65Z" fill="#C4D2EA"/>
<path d="M220.586 286.449H214.664V292.373H220.586V286.449Z" fill="#C4D2EA"/>
<path d="M220.586 322.277H214.664V328.201H220.586V322.277Z" fill="#C4D2EA"/>
<path d="M220.586 358.076H214.664V364H220.586V358.076Z" fill="#C4D2EA"/>
<path d="M253 0H247.078V5.92359H253V0Z" fill="#C4D2EA"/>
<path d="M253 35.7988H247.078V41.7224H253V35.7988Z" fill="#C4D2EA"/>
<path d="M253 71.627H247.078V77.5505H253V71.627Z" fill="#C4D2EA"/>
<path d="M253 107.426H247.078V113.349H253V107.426Z" fill="#C4D2EA"/>
<path d="M253 143.225H247.078V149.148H253V143.225Z" fill="#C4D2EA"/>
<path d="M253 179.023H247.078V184.947H253V179.023Z" fill="#C4D2EA"/>
<path d="M253 214.852H247.078V220.775H253V214.852Z" fill="#C4D2EA"/>
<path d="M253 250.65H247.078V256.574H253V250.65Z" fill="#C4D2EA"/>
<path d="M253 286.449H247.078V292.373H253V286.449Z" fill="#C4D2EA"/>
<path d="M253 322.277H247.078V328.201H253V322.277Z" fill="#C4D2EA"/>
<path d="M253 358.076H247.078V364H253V358.076Z" fill="#C4D2EA"/>
</svg>
