<svg width="258" height="364" viewBox="0 0 258 364" fill="none" xmlns="http://www.w3.org/2000/svg">
<mask id="mask0_7265_2295" style="mask-type:alpha" maskUnits="userSpaceOnUse" x="0" y="0" width="258" height="364">
<rect width="258" height="364" fill="#D9D9D9"/>
</mask>
<g mask="url(#mask0_7265_2295)">
</g>
<path d="M31.1558 0H25.2344V5.92359H31.1558V0Z" fill="#0D4C91"/>
<path d="M31.1558 35.7988H25.2344V41.7224H31.1558V35.7988Z" fill="#0D4C91"/>
<path d="M31.1558 71.627H25.2344V77.5505H31.1558V71.627Z" fill="#0D4C91"/>
<path d="M31.1558 107.426H25.2344V113.349H31.1558V107.426Z" fill="#0D4C91"/>
<path d="M31.1558 143.225H25.2344V149.148H31.1558V143.225Z" fill="#0D4C91"/>
<path d="M31.1558 179.023H25.2344V184.947H31.1558V179.023Z" fill="#0D4C91"/>
<path d="M31.1558 214.852H25.2344V220.775H31.1558V214.852Z" fill="#0D4C91"/>
<path d="M31.1558 250.65H25.2344V256.574H31.1558V250.65Z" fill="#0D4C91"/>
<path d="M31.1558 286.449H25.2344V292.373H31.1558V286.449Z" fill="#0D4C91"/>
<path d="M31.1558 322.277H25.2344V328.201H31.1558V322.277Z" fill="#0D4C91"/>
<path d="M31.1558 358.076H25.2344V364H31.1558V358.076Z" fill="#0D4C91"/>
<path d="M63.5621 0H57.6406V5.92359H63.5621V0Z" fill="#0D4C91"/>
<path d="M63.5621 35.7988H57.6406V41.7224H63.5621V35.7988Z" fill="#0D4C91"/>
<path d="M63.5621 71.627H57.6406V77.5505H63.5621V71.627Z" fill="#0D4C91"/>
<path d="M63.5621 107.426H57.6406V113.349H63.5621V107.426Z" fill="#0D4C91"/>
<path d="M63.5621 143.225H57.6406V149.148H63.5621V143.225Z" fill="#0D4C91"/>
<path d="M63.5621 179.023H57.6406V184.947H63.5621V179.023Z" fill="#0D4C91"/>
<path d="M63.5621 214.852H57.6406V220.775H63.5621V214.852Z" fill="#0D4C91"/>
<path d="M63.5621 250.65H57.6406V256.574H63.5621V250.65Z" fill="#0D4C91"/>
<path d="M63.5621 286.449H57.6406V292.373H63.5621V286.449Z" fill="#0D4C91"/>
<path d="M63.5621 322.277H57.6406V328.201H63.5621V322.277Z" fill="#0D4C91"/>
<path d="M63.5621 358.076H57.6406V364H63.5621V358.076Z" fill="#0D4C91"/>
<path d="M95.9762 0H90.0547V5.92359H95.9762V0Z" fill="#0D4C91"/>
<path d="M95.9762 35.7988H90.0547V41.7224H95.9762V35.7988Z" fill="#0D4C91"/>
<path d="M95.9762 71.627H90.0547V77.5505H95.9762V71.627Z" fill="#0D4C91"/>
<path d="M95.9762 107.426H90.0547V113.349H95.9762V107.426Z" fill="#0D4C91"/>
<path d="M95.9762 143.225H90.0547V149.148H95.9762V143.225Z" fill="#0D4C91"/>
<path d="M95.9762 179.023H90.0547V184.947H95.9762V179.023Z" fill="#0D4C91"/>
<path d="M95.9762 214.852H90.0547V220.775H95.9762V214.852Z" fill="#0D4C91"/>
<path d="M95.9762 250.65H90.0547V256.574H95.9762V250.65Z" fill="#0D4C91"/>
<path d="M95.9762 286.449H90.0547V292.373H95.9762V286.449Z" fill="#0D4C91"/>
<path d="M95.9762 322.277H90.0547V328.201H95.9762V322.277Z" fill="#0D4C91"/>
<path d="M95.9762 358.076H90.0547V364H95.9762V358.076Z" fill="#0D4C91"/>
<path d="M128.382 0H122.461V5.92359H128.382V0Z" fill="#0D4C91"/>
<path d="M128.382 35.7988H122.461V41.7224H128.382V35.7988Z" fill="#0D4C91"/>
<path d="M128.382 71.627H122.461V77.5505H128.382V71.627Z" fill="#0D4C91"/>
<path d="M128.382 107.426H122.461V113.349H128.382V107.426Z" fill="#0D4C91"/>
<path d="M128.382 143.225H122.461V149.148H128.382V143.225Z" fill="#0D4C91"/>
<path d="M128.382 179.023H122.461V184.947H128.382V179.023Z" fill="#0D4C91"/>
<path d="M128.382 214.852H122.461V220.775H128.382V214.852Z" fill="#0D4C91"/>
<path d="M128.382 250.65H122.461V256.574H128.382V250.65Z" fill="#0D4C91"/>
<path d="M128.382 286.449H122.461V292.373H128.382V286.449Z" fill="#0D4C91"/>
<path d="M128.382 322.277H122.461V328.201H128.382V322.277Z" fill="#0D4C91"/>
<path d="M128.382 358.076H122.461V364H128.382V358.076Z" fill="#0D4C91"/>
<path d="M160.765 0H154.844V5.92359H160.765V0Z" fill="#0D4C91"/>
<path d="M160.765 35.7988H154.844V41.7224H160.765V35.7988Z" fill="#0D4C91"/>
<path d="M160.765 71.627H154.844V77.5505H160.765V71.627Z" fill="#0D4C91"/>
<path d="M160.765 107.426H154.844V113.349H160.765V107.426Z" fill="#0D4C91"/>
<path d="M160.765 143.225H154.844V149.148H160.765V143.225Z" fill="#0D4C91"/>
<path d="M160.765 179.023H154.844V184.947H160.765V179.023Z" fill="#0D4C91"/>
<path d="M160.765 214.852H154.844V220.775H160.765V214.852Z" fill="#0D4C91"/>
<path d="M160.765 250.65H154.844V256.574H160.765V250.65Z" fill="#0D4C91"/>
<path d="M160.765 286.449H154.844V292.373H160.765V286.449Z" fill="#0D4C91"/>
<path d="M160.765 322.277H154.844V328.201H160.765V322.277Z" fill="#0D4C91"/>
<path d="M160.765 358.076H154.844V364H160.765V358.076Z" fill="#0D4C91"/>
<path d="M193.179 0H187.258V5.92359H193.179V0Z" fill="#0D4C91"/>
<path d="M193.179 35.7988H187.258V41.7224H193.179V35.7988Z" fill="#0D4C91"/>
<path d="M193.179 71.627H187.258V77.5505H193.179V71.627Z" fill="#0D4C91"/>
<path d="M193.179 107.426H187.258V113.349H193.179V107.426Z" fill="#0D4C91"/>
<path d="M193.179 143.225H187.258V149.148H193.179V143.225Z" fill="#0D4C91"/>
<path d="M193.179 179.023H187.258V184.947H193.179V179.023Z" fill="#0D4C91"/>
<path d="M193.179 214.852H187.258V220.775H193.179V214.852Z" fill="#0D4C91"/>
<path d="M193.179 250.65H187.258V256.574H193.179V250.65Z" fill="#0D4C91"/>
<path d="M193.179 286.449H187.258V292.373H193.179V286.449Z" fill="#0D4C91"/>
<path d="M193.179 322.277H187.258V328.201H193.179V322.277Z" fill="#0D4C91"/>
<path d="M193.179 358.076H187.258V364H193.179V358.076Z" fill="#0D4C91"/>
<path d="M225.586 0H219.664V5.92359H225.586V0Z" fill="#0D4C91"/>
<path d="M225.586 35.7988H219.664V41.7224H225.586V35.7988Z" fill="#0D4C91"/>
<path d="M225.586 71.627H219.664V77.5505H225.586V71.627Z" fill="#0D4C91"/>
<path d="M225.586 107.426H219.664V113.349H225.586V107.426Z" fill="#0D4C91"/>
<path d="M225.586 143.225H219.664V149.148H225.586V143.225Z" fill="#0D4C91"/>
<path d="M225.586 179.023H219.664V184.947H225.586V179.023Z" fill="#0D4C91"/>
<path d="M225.586 214.852H219.664V220.775H225.586V214.852Z" fill="#0D4C91"/>
<path d="M225.586 250.65H219.664V256.574H225.586V250.65Z" fill="#0D4C91"/>
<path d="M225.586 286.449H219.664V292.373H225.586V286.449Z" fill="#0D4C91"/>
<path d="M225.586 322.277H219.664V328.201H225.586V322.277Z" fill="#0D4C91"/>
<path d="M225.586 358.076H219.664V364H225.586V358.076Z" fill="#0D4C91"/>
<path d="M258 0H252.078V5.92359H258V0Z" fill="#0D4C91"/>
<path d="M258 35.7988H252.078V41.7224H258V35.7988Z" fill="#0D4C91"/>
<path d="M258 71.627H252.078V77.5505H258V71.627Z" fill="#0D4C91"/>
<path d="M258 107.426H252.078V113.349H258V107.426Z" fill="#0D4C91"/>
<path d="M258 143.225H252.078V149.148H258V143.225Z" fill="#0D4C91"/>
<path d="M258 179.023H252.078V184.947H258V179.023Z" fill="#0D4C91"/>
<path d="M258 214.852H252.078V220.775H258V214.852Z" fill="#0D4C91"/>
<path d="M258 250.65H252.078V256.574H258V250.65Z" fill="#0D4C91"/>
<path d="M258 286.449H252.078V292.373H258V286.449Z" fill="#0D4C91"/>
<path d="M258 322.277H252.078V328.201H258V322.277Z" fill="#0D4C91"/>
<path d="M258 358.076H252.078V364H258V358.076Z" fill="#0D4C91"/>
</svg>
