<svg width="165" height="270" viewBox="0 0 165 270" fill="none" xmlns="http://www.w3.org/2000/svg">
<path d="M5.92146 13.4258H0V19.3494H5.92146V13.4258Z" fill="#0D4C91"/>
<path d="M5.92146 49.2246H0V55.1482H5.92146V49.2246Z" fill="#0D4C91"/>
<path d="M5.92146 85.0234H0V90.947H5.92146V85.0234Z" fill="#0D4C91"/>
<path d="M5.92146 120.852H0V126.775H5.92146V120.852Z" fill="#0D4C91"/>
<path d="M5.92146 156.65H0V162.574H5.92146V156.65Z" fill="#0D4C91"/>
<path d="M5.92146 192.449H0V198.373H5.92146V192.449Z" fill="#0D4C91"/>
<path d="M5.92146 228.277H0V234.201H5.92146V228.277Z" fill="#0D4C91"/>
<path d="M5.92146 264.076H0V270H5.92146V264.076Z" fill="#0D4C91"/>
<path d="M38.3355 13.4258H32.4141V19.3494H38.3355V13.4258Z" fill="#0D4C91"/>
<path d="M38.3355 49.2246H32.4141V55.1482H38.3355V49.2246Z" fill="#0D4C91"/>
<path d="M38.3355 85.0234H32.4141V90.947H38.3355V85.0234Z" fill="#0D4C91"/>
<path d="M38.3355 120.852H32.4141V126.775H38.3355V120.852Z" fill="#0D4C91"/>
<path d="M38.3355 156.65H32.4141V162.574H38.3355V156.65Z" fill="#0D4C91"/>
<path d="M38.3355 192.449H32.4141V198.373H38.3355V192.449Z" fill="#0D4C91"/>
<path d="M38.3355 228.277H32.4141V234.201H38.3355V228.277Z" fill="#0D4C91"/>
<path d="M38.3355 264.076H32.4141V270H38.3355V264.076Z" fill="#0D4C91"/>
<path d="M70.7418 13.4258H64.8203V19.3494H70.7418V13.4258Z" fill="#0D4C91"/>
<path d="M70.7418 49.2246H64.8203V55.1482H70.7418V49.2246Z" fill="#0D4C91"/>
<path d="M70.7418 85.0234H64.8203V90.947H70.7418V85.0234Z" fill="#0D4C91"/>
<path d="M70.7418 120.852H64.8203V126.775H70.7418V120.852Z" fill="#0D4C91"/>
<path d="M70.7418 156.65H64.8203V162.574H70.7418V156.65Z" fill="#0D4C91"/>
<path d="M70.7418 192.449H64.8203V198.373H70.7418V192.449Z" fill="#0D4C91"/>
<path d="M70.7418 228.277H64.8203V234.201H70.7418V228.277Z" fill="#0D4C91"/>
<path d="M70.7418 264.076H64.8203V270H70.7418V264.076Z" fill="#0D4C91"/>
<path d="M103.156 13.4258H97.2344V19.3494H103.156V13.4258Z" fill="#0D4C91"/>
<path d="M103.156 49.2246H97.2344V55.1482H103.156V49.2246Z" fill="#0D4C91"/>
<path d="M103.156 85.0234H97.2344V90.947H103.156V85.0234Z" fill="#0D4C91"/>
<path d="M103.156 120.852H97.2344V126.775H103.156V120.852Z" fill="#0D4C91"/>
<path d="M103.156 156.65H97.2344V162.574H103.156V156.65Z" fill="#0D4C91"/>
<path d="M103.156 192.449H97.2344V198.373H103.156V192.449Z" fill="#0D4C91"/>
<path d="M103.156 228.277H97.2344V234.201H103.156V228.277Z" fill="#0D4C91"/>
<path d="M103.156 264.076H97.2344V270H103.156V264.076Z" fill="#0D4C91"/>
<path d="M135.562 13.4258H129.641V19.3494H135.562V13.4258Z" fill="#0D4C91"/>
<path d="M135.562 49.2246H129.641V55.1482H135.562V49.2246Z" fill="#0D4C91"/>
<path d="M135.562 85.0234H129.641V90.947H135.562V85.0234Z" fill="#0D4C91"/>
<path d="M135.562 120.852H129.641V126.775H135.562V120.852Z" fill="#0D4C91"/>
<path d="M135.562 156.65H129.641V162.574H135.562V156.65Z" fill="#0D4C91"/>
<path d="M135.562 192.449H129.641V198.373H135.562V192.449Z" fill="#0D4C91"/>
<path d="M135.562 228.277H129.641V234.201H135.562V228.277Z" fill="#0D4C91"/>
<path d="M135.562 264.076H129.641V270H135.562V264.076Z" fill="#0D4C91"/>
<path d="M167.976 13.4258H162.055V19.3494H167.976V13.4258Z" fill="#0D4C91"/>
<path d="M167.976 49.2246H162.055V55.1482H167.976V49.2246Z" fill="#0D4C91"/>
<path d="M167.976 85.0234H162.055V90.947H167.976V85.0234Z" fill="#0D4C91"/>
<path d="M167.976 120.852H162.055V126.775H167.976V120.852Z" fill="#0D4C91"/>
<path d="M167.976 156.65H162.055V162.574H167.976V156.65Z" fill="#0D4C91"/>
<path d="M167.976 192.449H162.055V198.373H167.976V192.449Z" fill="#0D4C91"/>
<path d="M167.976 228.277H162.055V234.201H167.976V228.277Z" fill="#0D4C91"/>
<path d="M167.976 264.076H162.055V270H167.976V264.076Z" fill="#0D4C91"/>
</svg>
