<svg width="51" height="31" viewBox="0 0 51 31" fill="none" xmlns="http://www.w3.org/2000/svg">
<g clip-path="url(#clip0_7092_645)">
<path d="M32.6019 28.78C33.4832 28.7614 34.3609 28.5779 35.2103 28.3704C35.4126 28.322 35.6214 28.3002 35.8241 28.2475C36.0269 28.1949 36.2253 28.1419 36.4283 28.0849C36.9141 27.9472 37.4001 27.8052 37.8751 27.6406C37.782 27.672 37.6934 27.6993 37.6003 27.7307C38.3929 27.4796 39.1762 27.1844 39.9441 26.8663C40.6356 26.5853 41.3171 26.2688 41.9604 25.8928C43.3375 25.0878 44.6818 24.2107 45.9202 23.2037C46.6411 22.6176 47.3805 22.0157 48.006 21.3309C47.935 21.4073 47.8637 21.4881 47.7928 21.5645C48.2185 21.1058 48.6365 20.6378 49.0426 20.1558C49.2576 19.9006 49.2726 19.5078 49.1766 19.2054C49.0728 18.8938 48.8519 18.6418 48.5377 18.5294C48.1481 18.3892 47.7838 18.2035 47.4156 18.013C45.1169 16.8025 42.9601 15.3352 40.9855 13.6446C40.4657 13.1992 39.9462 12.7495 39.4403 12.2923C38.9354 11.8222 38.4537 11.3323 37.93 10.8823C37.6881 10.6763 37.4562 10.4537 37.2097 10.2516C37.0843 10.1504 36.9589 10.0492 36.8339 9.94367C36.6845 9.81883 36.5203 9.77071 36.3396 9.71259C36.0539 9.61987 35.8153 9.84713 35.8435 10.1352C35.8575 10.2793 35.8577 10.4352 35.9203 10.5659C35.9718 10.6741 36.0365 10.779 36.0969 10.8835C36.24 11.1378 36.4008 11.3848 36.5621 11.6275C36.6965 11.8291 36.8352 12.031 36.9782 12.2333C37.1172 12.4309 37.2791 12.613 37.441 12.7952C38.1396 13.5843 38.8664 14.3455 39.6539 15.051C41.1241 16.3711 42.7042 17.5616 44.3733 18.6122C44.972 18.9904 45.5856 19.3439 46.2046 19.6848C46.1493 19.7279 46.0893 19.775 46.034 19.8181C46.0298 19.8177 46.0255 19.8174 46.0255 19.8174C45.8045 19.8295 45.5882 19.8378 45.3676 19.8457C44.9739 19.861 44.5851 19.8681 44.1925 19.8705C43.3725 19.8769 42.5525 19.8832 41.7304 19.8634C40.1079 19.8213 38.4689 19.6652 36.8602 19.4553C36.058 19.3505 35.2575 19.2242 34.4585 19.0807C34.0589 19.009 33.6601 18.9286 33.2656 18.8486C33.0746 18.8113 32.8796 18.7694 32.6889 18.7277C32.6847 18.7274 32.6804 18.727 32.6761 18.7267C32.6422 18.7196 32.6125 18.7128 32.5829 18.706C32.4686 18.6794 32.3583 18.6573 32.2441 18.6306C30.6652 18.2673 29.1108 17.815 27.5696 17.3075C26.0156 16.799 24.4886 16.2234 22.9894 15.5721C22.2441 15.2468 21.5088 14.905 20.7834 14.5467C20.6052 14.4585 20.4313 14.3706 20.253 14.2824C20.1702 14.2409 20.0873 14.1995 20.0048 14.1537C19.9634 14.133 19.922 14.1123 19.8805 14.0916C19.868 14.0862 19.8598 14.0812 19.8516 14.0762C19.8044 14.0204 19.6695 13.9833 19.6077 13.9479C19.5169 13.8972 19.4216 13.8504 19.3309 13.7997C19.1369 13.6928 18.9426 13.5903 18.753 13.4838C15.9239 11.905 13.233 10.0604 10.7468 7.98139C10.1295 7.46307 9.54705 6.88699 8.90545 6.40133C9.06371 6.52257 8.81685 6.32478 8.78504 6.29185C8.70894 6.22066 8.63284 6.14946 8.55673 6.07826C8.40453 5.93587 8.25267 5.78917 8.10475 5.64712C7.93681 5.48612 7.76425 5.32906 7.59167 5.172C7.55559 5.13873 7.5195 5.10546 7.48341 5.07218C7.47948 5.06753 7.47555 5.06288 7.46769 5.05357C7.39299 4.96517 7.30011 4.88827 7.22043 4.80811C6.07272 3.65736 4.96639 2.47537 3.94029 1.20901C3.68582 0.893675 3.43135 0.578338 3.16297 0.27485C2.96571 0.0508121 2.62546 -0.00740995 2.3786 0.162877C2.15028 0.317363 2.00069 0.668843 2.16051 0.928782C3.03076 2.3599 4.13719 3.64583 5.20008 4.93686C5.72545 5.57754 6.29506 6.20453 6.87643 6.79351C7.4896 7.41541 8.10241 8.04162 8.74874 8.62727C11.1969 10.8547 13.8654 12.8144 16.7128 14.4856C19.6013 16.1819 22.6501 17.6055 25.8111 18.7135C28.9596 19.8162 32.2531 20.5714 35.5612 20.9899C38.3956 21.348 41.2718 21.4584 44.1296 21.2684C43.9098 21.4236 43.6854 21.5827 43.4657 21.7379C43.1225 21.9782 42.7797 22.2143 42.4286 22.4453C41.5043 23.0407 40.5574 23.5953 39.6027 24.1405C39.0914 24.432 38.5959 24.7421 38.081 25.0247C37.5798 25.2997 37.0752 25.5614 36.5665 25.8228C36.2782 25.9724 35.9863 26.113 35.6901 26.2532C35.3401 26.4194 34.9911 26.5726 34.6669 26.7929C34.7307 26.7505 34.7942 26.7124 34.8538 26.6696C34.4395 26.8305 34.032 27.0136 33.6249 27.1924C33.2177 27.3712 32.8081 27.5281 32.416 27.7341C32.204 27.8467 32.054 28.0985 32.1117 28.3414C32.1547 28.5528 32.3556 28.7858 32.6019 28.78Z" fill="#C5CDDA"/>
</g>
<defs>
<clipPath id="clip0_7092_645">
<rect width="26.1973" height="48.542" fill="white" transform="translate(50.5234 3.96875) rotate(94.6893)"/>
</clipPath>
</defs>
</svg>
