<svg width="30" height="30" viewBox="0 0 30 30" fill="none" xmlns="http://www.w3.org/2000/svg">
<path d="M29.5312 15C29.5312 6.97266 23.0273 0.46875 15 0.46875C6.97266 0.46875 0.46875 6.97266 0.46875 15C0.46875 23.0273 6.97266 29.5312 15 29.5312C23.0273 29.5312 29.5312 23.0273 29.5312 15ZM15 27.6562C8.04492 27.6562 2.34375 22.0254 2.34375 15C2.34375 8.04492 7.97461 2.34375 15 2.34375C21.9551 2.34375 27.6562 7.97461 27.6562 15C27.6562 21.9551 22.0254 27.6562 15 27.6562ZM14.2676 22.2363L7.52344 15.498C7.24805 15.2227 7.24805 14.7773 7.52344 14.502L14.2676 7.76367C14.543 7.48828 14.9883 7.48828 15.2637 7.76367L15.668 8.16797C15.9434 8.44336 15.9434 8.90039 15.6563 9.16992L10.6465 14.0039H21.7969C22.1836 14.0039 22.5 14.3203 22.5 14.707V15.293C22.5 15.6797 22.1836 15.9961 21.7969 15.9961H10.6465L15.6621 20.8301C15.9434 21.1055 15.9492 21.5566 15.6738 21.832L15.2695 22.2363C14.9883 22.5117 14.543 22.5117 14.2676 22.2363Z" fill="white"/>
</svg>
