<svg width="31" height="30" viewBox="0 0 31 30" fill="none" xmlns="http://www.w3.org/2000/svg">
<g clip-path="url(#clip0_7156_10767)">
<path d="M29.5391 15C29.5391 6.97266 23.0352 0.46875 15.0078 0.46875C6.98047 0.46875 0.476562 6.97266 0.476562 15C0.476562 23.0273 6.98047 29.5312 15.0078 29.5312C23.0352 29.5312 29.5391 23.0273 29.5391 15ZM15.0078 27.6562C8.05274 27.6562 2.35156 22.0254 2.35156 15C2.35156 8.04492 7.98242 2.34375 15.0078 2.34375C21.9629 2.34375 27.6641 7.97461 27.6641 15C27.6641 21.9551 22.0332 27.6562 15.0078 27.6562ZM14.2754 22.2363L7.53125 15.498C7.25586 15.2227 7.25586 14.7773 7.53125 14.502L14.2754 7.76367C14.5508 7.48828 14.9961 7.48828 15.2715 7.76367L15.6758 8.16797C15.9512 8.44336 15.9512 8.90039 15.6641 9.16992L10.6543 14.0039H21.8047C22.1914 14.0039 22.5078 14.3203 22.5078 14.707V15.293C22.5078 15.6797 22.1914 15.9961 21.8047 15.9961H10.6543L15.6699 20.8301C15.9512 21.1055 15.957 21.5566 15.6816 21.832L15.2773 22.2363C14.9961 22.5117 14.5508 22.5117 14.2754 22.2363Z" fill="#A6B4CB"/>
</g>
<defs>
<clipPath id="clip0_7156_10767">
<rect width="30" height="30" fill="white" transform="translate(0.0078125)"/>
</clipPath>
</defs>
</svg>
